<?xml version="1.0" standalone="no"?>
<!DOCTYPE svg PUBLIC "-//W3C//DTD SVG 20010904//EN"
 "http://www.w3.org/TR/2001/REC-SVG-20010904/DTD/svg10.dtd">
<svg version="1.0" xmlns="http://www.w3.org/2000/svg"
 width="512.000000pt" height="512.000000pt" viewBox="0 0 512.000000 512.000000"
 preserveAspectRatio="xMidYMid meet">

<g transform="translate(0.000000,512.000000) scale(0.100000,-0.100000)"
fill="#000000" stroke="none">
<path d="M2440 4869 c-660 -63 -1194 -552 -1327 -1214 -27 -135 -24 -425 5
-560 68 -316 189 -538 426 -784 73 -75 147 -158 165 -184 49 -72 100 -188 129
-296 25 -95 26 -103 31 -543 7 -510 1 -478 94 -486 l54 -4 21 -72 c24 -81 85
-181 140 -226 20 -17 62 -43 92 -58 l55 -27 255 0 c224 0 260 2 300 18 115 47
209 155 251 290 l23 75 53 4 c94 8 87 -27 94 511 6 525 6 517 79 674 54 116
86 159 241 320 196 203 296 359 373 582 63 181 80 282 80 486 0 207 -15 309
-70 474 -191 574 -690 966 -1299 1021 -114 11 -147 10 -265 -1z m420 -174
c263 -58 487 -181 675 -370 333 -334 466 -814 350 -1269 -43 -170 -122 -338
-225 -476 -22 -30 -94 -109 -158 -175 -133 -136 -193 -215 -250 -330 -48 -98
-70 -165 -86 -258 l-12 -72 -147 -3 -147 -3 0 595 0 594 93 4 c78 3 100 8 145
33 94 51 142 132 142 237 0 146 -103 255 -251 266 -56 4 -75 1 -120 -20 -113
-52 -160 -131 -167 -275 l-4 -93 -114 0 -114 0 0 73 c0 104 -22 169 -76 227
-109 116 -284 120 -391 8 -76 -80 -96 -208 -47 -306 49 -99 127 -144 262 -150
l92 -4 0 -594 0 -594 -150 0 -149 0 -6 37 c-13 79 -57 221 -91 292 -55 118
-120 206 -237 325 -171 173 -260 302 -334 481 -293 720 82 1533 821 1780 158
53 244 65 446 60 113 -2 201 -9 250 -20z m-610 -1390 c49 -25 60 -51 60 -142
l0 -83 -60 0 c-72 0 -119 17 -148 55 -42 53 -21 138 40 168 41 21 71 21 108 2z
m774 0 c45 -22 70 -67 63 -117 -10 -72 -65 -108 -167 -108 l-60 0 0 81 c0 91
8 112 53 139 39 24 68 25 111 5z m-324 -970 l0 -595 -115 0 -115 0 0 595 0
595 115 0 115 0 0 -595z m450 -1060 l0 -315 -565 0 -565 0 0 315 0 315 565 0
565 0 0 -315z m-165 -502 c-22 -94 -101 -182 -180 -202 -57 -14 -383 -14 -440
0 -60 15 -128 76 -159 144 -44 93 -79 85 380 85 l406 0 -7 -27z"/>
</g>
</svg>
